<?xml version="1.0" encoding="utf-8"?>
<!-- Generator: Adobe Illustrator 21.0.0, SVG Export Plug-In . SVG Version: 6.00 Build 0)  -->
<svg version="1.1" id="Layer_1" xmlns="http://www.w3.org/2000/svg" xmlns:xlink="http://www.w3.org/1999/xlink" x="0px" y="0px"
	 width="28px" height="35px" viewBox="0 0 28 35" style="enable-background:new 0 0 28 35;" xml:space="preserve">
<style type="text/css">
	.st0{fill:#3150A2;}
</style>
<g>
	<path class="st0" d="M20.4,1L14,14.1L7.6,1L0.5,15.9V33h27V15.9L20.4,1z M20.4,3.4l6,12.5h-12L20.4,3.4z M7.6,3.4l6.1,12.5h-12
		L7.6,3.4z M13.5,32h-1.4v-7.8h1.4V32z M12.1,23.2c0-1,0.9-1.7,1.9-1.7c1,0,1.9,0.8,1.9,1.7H12.1z M15.9,32h-1.4v-7.8h1.4V32z
		 M26.5,32H17v-8.8h0c0-1.5-1.3-2.8-2.9-2.8c-1.6,0-2.9,1.2-2.9,2.8h0V32H1.5V16.9h24.9V32z"/>
	<path class="st0" d="M9.3,19.1H3.3v8h5.9V19.1z M5.8,26H4.4v-5.9h1.4V26z M8.2,26H6.8v-5.9h1.4V26z"/>
	<path class="st0" d="M24.7,19.1h-5.9v8h5.9V19.1z M21.2,26h-1.4v-5.9h1.4V26z M23.7,26h-1.4v-5.9h1.4V26z"/>
</g>
</svg>
