<?xml version="1.0" encoding="utf-8"?>
<!-- Generator: Adobe Illustrator 20.1.0, SVG Export Plug-In . SVG Version: 6.00 Build 0)  -->
<svg version="1.1" id="Layer_1" xmlns="http://www.w3.org/2000/svg" xmlns:xlink="http://www.w3.org/1999/xlink" x="0px" y="0px"
	 width="123px" height="8px" viewBox="0 0 123 8" style="enable-background:new 0 0 123 8;" xml:space="preserve">
<g>
	<polygon style="fill:#3150A2;" points="8.4,0 4.8,6.3 1.2,0 0,0 0,8 1.3,8 1.3,2.7 4.3,8 5.3,8 8.3,2.7 8.3,8 9.6,8 9.6,0 	"/>
	<path style="fill:#3150A2;" d="M20,1.7l1.7,3.6h-3.3L20,1.7z M19.4,0l-3.7,8h1.4l0.6-1.3h4.6L22.9,8h1.4l-3.7-8H19.4z"/>
	<rect x="30.8" y="0" style="fill:#3150A2;" width="1.3" height="8"/>
	<g>
		<defs>
			<rect id="SVGID_1_" y="0" width="123" height="8"/>
		</defs>
		<clipPath id="SVGID_2_">
			<use xlink:href="#SVGID_1_"  style="overflow:visible;"/>
		</clipPath>
		<path style="clip-path:url(#SVGID_2_);fill:#3150A2;" d="M41.7,1.3c0.7,0,1.2,0.4,1.4,1.3l1.2-0.5C44,0.8,43,0,41.8,0
			c-1.3,0-2.4,0.8-2.4,2.3c0,2.7,3.6,1.9,3.6,3.5c0,0.6-0.4,0.9-1.1,0.9c-0.8,0-1.3-0.5-1.5-1.4l-1.1,0.6C39.5,7.5,40.7,8,41.8,8
			c1.3,0,2.4-0.7,2.4-2.3c0-2.8-3.6-1.9-3.6-3.5C40.6,1.7,41,1.3,41.7,1.3"/>
		<path style="clip-path:url(#SVGID_2_);fill:#3150A2;" d="M54.9,6.7c-1.5,0-2.7-1.1-2.7-2.7s1.1-2.7,2.7-2.7c1.5,0,2.7,1.1,2.7,2.7
			S56.5,6.7,54.9,6.7 M54.9,0c-2.3,0-4,1.7-4,4s1.7,4,4,4c2.3,0,4-1.7,4-4S57.2,0,54.9,0"/>
	</g>
	<polygon style="fill:#3150A2;" points="71.7,0 71.7,5.8 67,0 65.8,0 65.8,8 67.1,8 67.1,2.3 71.8,8 73,8 73,0 	"/>
	<polygon style="fill:#3150A2;" points="80.2,0 80.2,8 85.2,8 85.2,6.7 81.5,6.7 81.5,4.7 85.2,4.7 85.2,3.3 81.5,3.3 81.5,1.3 
		85.2,1.3 85.2,0 	"/>
	<polygon style="fill:#3150A2;" points="91.4,0 91.4,1.3 94.4,1.3 94.4,8 95.7,8 95.7,1.3 98.7,1.3 98.7,0 	"/>
	<polygon style="fill:#3150A2;" points="104.3,0 104.3,1.3 107.3,1.3 107.3,8 108.6,8 108.6,1.3 111.6,1.3 111.6,0 	"/>
	<polygon style="fill:#3150A2;" points="118,0 118,8 123,8 123,6.7 119.3,6.7 119.3,4.7 123,4.7 123,3.3 119.3,3.3 119.3,1.3 
		123,1.3 123,0 	"/>
</g>
</svg>
