<?xml version="1.0" encoding="utf-8"?>
<!-- Generator: Adobe Illustrator 23.0.3, SVG Export Plug-In . SVG Version: 6.00 Build 0)  -->
<svg version="1.1" id="Layer_1" xmlns="http://www.w3.org/2000/svg" xmlns:xlink="http://www.w3.org/1999/xlink" x="0px" y="0px"
	 viewBox="0 0 11 19" style="enable-background:new 0 0 11 19;" xml:space="preserve">
<style type="text/css">
	.st0{clip-path:url(#SVGID_2_);fill:#f45244;}
	.st1{clip-path:url(#SVGID_4_);fill:#f45244;}
	.st2{clip-path:url(#SVGID_6_);fill:#f45244;}
</style>
<g>
	<g>
		<defs>
			<rect id="SVGID_1_" x="1" y="1.1" width="8.8" height="16.9"/>
		</defs>
		<clipPath id="SVGID_2_">
			<use xlink:href="#SVGID_1_"  style="overflow:visible;"/>
		</clipPath>
		<path class="st0" d="M9.8,17.9c-0.7,0-1.3,0.2-1.8,0c-2-0.5-4-1.1-6-1.7c-0.4-0.1-0.8-0.5-0.9-0.8c-0.3-0.5,0.3-0.8,1.2-0.6
			c0.6,0.1,1.2,0.4,1.9,0.6c1.5,0.4,3,0.9,4.5,1.3C9.4,16.9,9.7,17.2,9.8,17.9"/>
	</g>
	<g>
		<defs>
			<rect id="SVGID_3_" x="1" y="1.1" width="8.8" height="16.9"/>
		</defs>
		<clipPath id="SVGID_4_">
			<use xlink:href="#SVGID_3_"  style="overflow:visible;"/>
		</clipPath>
		<path class="st1" d="M1.9,6C1.3,5.4,1,4.9,1.6,4.4C3,3.3,4.5,2.3,5.9,1.2c0.1,0,0.2,0,0.5-0.1C6.5,1.4,6.8,1.7,6.7,2
			C6.6,2.9,3.4,5.5,1.9,6"/>
	</g>
	<g>
		<defs>
			<rect id="SVGID_5_" x="1" y="1.1" width="8.8" height="16.9"/>
		</defs>
		<clipPath id="SVGID_6_">
			<use xlink:href="#SVGID_5_"  style="overflow:visible;"/>
		</clipPath>
		<path class="st2" d="M7.8,9.6c0.2,1,0.1,1.2-1,1.3C5.4,11,4,11,2.6,11c-0.7,0-1-0.4-1-0.8C1.5,9.8,1.8,9.5,2.4,9.4
			c0.2,0,0.5,0,0.7,0C4.7,9.5,6.2,9.5,7.8,9.6"/>
	</g>
</g>
</svg>
