<?xml version="1.0" encoding="utf-8"?>
<!-- Generator: Adobe Illustrator 21.1.0, SVG Export Plug-In . SVG Version: 6.00 Build 0)  -->
<svg version="1.1" id="Layer_1" xmlns="http://www.w3.org/2000/svg" xmlns:xlink="http://www.w3.org/1999/xlink" x="0px" y="0px"
	 viewBox="0 0 11 19" style="enable-background:new 0 0 11 19;" xml:space="preserve">
<style type="text/css">
	.st0{clip-path:url(#SVGID_2_);fill:#f45244;}
</style>
<g>
	<defs>
		<rect id="SVGID_1_" x="1" y="1.1" width="8.8" height="16.9"/>
	</defs>
	<clipPath id="SVGID_2_">
		<use xlink:href="#SVGID_1_"  style="overflow:visible;"/>
	</clipPath>
	<path class="st0" d="M1,1.2c0.7,0,1.3-0.2,1.8,0c2,0.5,4,1.1,6,1.7C9.2,3,9.6,3.4,9.7,3.7C10,4.2,9.4,4.5,8.5,4.3
		C7.9,4.2,7.3,3.9,6.6,3.7c-1.5-0.4-3-0.9-4.5-1.3C1.4,2.2,1.1,1.9,1,1.2"/>
	<path class="st0" d="M8.9,13.1c0.6,0.6,0.9,1.1,0.3,1.6c-1.4,1.1-2.9,2.1-4.3,3.2c-0.1,0-0.2,0-0.5,0.1c-0.1-0.3-0.4-0.6-0.3-0.9
		C4.2,16.2,7.4,13.6,8.9,13.1"/>
	<path class="st0" d="M3,9.5c-0.2-1-0.1-1.2,1-1.3c1.4-0.1,2.8-0.1,4.2-0.1c0.7,0,1,0.4,1,0.8C9.3,9.3,9,9.6,8.4,9.7
		c-0.2,0-0.5,0-0.7,0C6.1,9.6,4.6,9.6,3,9.5"/>
</g>
</svg> 